<?xml version="1.0" encoding="UTF-8" standalone="no"?><svg xmlns="http://www.w3.org/2000/svg" xmlns:xlink="http://www.w3.org/1999/xlink" clip-rule="evenodd" stroke-miterlimit="10" viewBox="0 0 1024 768"><desc>SVG generated by Keynote</desc><defs></defs><g transform="matrix(1.00, 0.00, -0.00, -1.00, 0.0, 768.0)"><path d="M 0.0 768.0 L 1024.0 768.0 L 1024.0 0.0 L 0.0 0.0 Z M 0.0 768.0 " fill="#FEFFFF"></path><image xlink:href="92AD429980D393123207037C6D772161.png" width="248.00" height="90.00" transform="matrix(1.00, 0.00, -0.00, -1.00, 27.7, 336.6)" opacity="0.50"></image><g><clipPath id="clip0x608000ca91e0"><path d="M 30.7 265.1 L 31.0 321.8 C 31.0 329.4 36.9 336.0 44.5 336.0 L 259.4 336.0 C 267.0 336.0 273.0 329.4 273.0 321.8 L 273.0 265.1 C 273.0 257.5 267.0 251.0 259.4 251.0 L 44.5 251.0 C 36.9 251.0 30.7 257.5 30.7 265.1 Z M 30.7 265.1 "></path></clipPath><g clip-path="url(#clip0x608000ca91e0)"><image xlink:href="../../3BE49F37-14FE-4738-9523-6C66365DB277/assets/C3C0FC898C94653CAF8AD846D6CCD108.png" width="600.00" height="600.00" transform="matrix(0.50, 0.00, -0.00, -0.50, 30.7, 336.0)"></image></g></g><g><clipPath id="clip0x6000012a3b40"><path d="M 28.7 251.3 L 275.2 251.3 L 275.2 335.6 L 28.7 335.6 Z M 28.7 251.3 "></path></clipPath><g clip-path="url(#clip0x6000012a3b40)"><text xml:space="preserve" font-family="Helvetica-Light,Helvetica" font-size="24.0" fill="#FEFFFE" transform="matrix(1.00, 0.00, -0.00, -1.00, 136.6, 284.4)">C</text><text xml:space="preserve" font-family="Helvetica-Light,Helvetica" font-size="24.0" fill="#FEFFFE" transform="matrix(1.00, 0.00, -0.00, -1.00, 153.9, 284.4)">2</text></g></g><image xlink:href="544CF7FB1D59CA16A587E65C9F9B2E09.png" width="250.00" height="92.00" transform="matrix(1.00, 0.00, -0.00, -1.00, 27.4, 464.7)" opacity="0.50"></image><g><clipPath id="clip0x6000012a4200"><path d="M 30.4 390.1 L 30.0 446.9 C 30.0 454.5 36.6 461.0 44.2 461.0 L 259.1 461.0 C 266.8 461.0 273.0 454.5 273.0 446.9 L 273.0 390.1 C 273.0 382.5 266.8 376.0 259.1 376.0 L 44.2 376.0 C 36.6 376.0 30.4 382.5 30.4 390.1 Z M 30.4 390.1 "></path></clipPath><g clip-path="url(#clip0x6000012a4200)"><image xlink:href="../../3BE49F37-14FE-4738-9523-6C66365DB277/assets/57C63BC369DF2E161F93135AB5988468.png" width="600.00" height="600.00" transform="matrix(0.50, 0.00, -0.00, -0.50, 30.0, 461.0)"></image></g></g><g><clipPath id="clip0x608000ca9360"><path d="M 28.4 376.4 L 274.9 376.4 L 274.9 460.7 L 28.4 460.7 Z M 28.4 376.4 "></path></clipPath><g clip-path="url(#clip0x608000ca9360)"><text xml:space="preserve" font-family="Helvetica-Bold,Helvetica" font-weight="bold" font-size="24.0" fill="#FEFFFE" transform="matrix(1.00, 0.00, -0.00, -1.00, 113.0, 409.4)">M</text><text xml:space="preserve" font-family="Helvetica-Bold,Helvetica" font-weight="bold" font-size="24.0" fill="#FEFFFE" transform="matrix(1.00, 0.00, -0.00, -1.00, 133.0, 409.4)">a</text><text xml:space="preserve" font-family="Helvetica-Bold,Helvetica" font-weight="bold" font-size="24.0" fill="#FEFFFE" transform="matrix(1.00, 0.00, -0.00, -1.00, 146.3, 409.4)">s</text><text xml:space="preserve" font-family="Helvetica-Bold,Helvetica" font-weight="bold" font-size="24.0" fill="#FEFFFE" transform="matrix(1.00, 0.00, -0.00, -1.00, 159.7, 409.4)">t</text><text xml:space="preserve" font-family="Helvetica-Bold,Helvetica" font-weight="bold" font-size="24.0" fill="#FEFFFE" transform="matrix(1.00, 0.00, -0.00, -1.00, 167.7, 409.4)">e</text><text xml:space="preserve" font-family="Helvetica-Bold,Helvetica" font-weight="bold" font-size="24.0" fill="#FEFFFE" transform="matrix(1.00, 0.00, -0.00, -1.00, 181.0, 409.4)">r</text></g></g><image xlink:href="E3E8A893D6A93FB922473A5C102467DE.png" width="250.00" height="92.00" transform="matrix(1.00, 0.00, -0.00, -1.00, 687.2, 99.4)" opacity="0.50"></image><g><clipPath id="clip0x6000012a4260"><path d="M 690.2 24.8 L 690.0 81.6 C 690.0 89.2 696.3 95.0 703.9 95.0 L 918.9 95.0 C 926.5 95.0 933.0 89.2 933.0 81.6 L 933.0 24.8 C 933.0 17.2 926.5 11.0 918.9 11.0 L 703.9 11.0 C 696.3 11.0 690.2 17.2 690.2 24.8 Z M 690.2 24.8 "></path></clipPath><g clip-path="url(#clip0x6000012a4260)"><image xlink:href="../../3BE49F37-14FE-4738-9523-6C66365DB277/assets/57C63BC369DF2E161F93135AB5988468.png" width="600.00" height="600.00" transform="matrix(0.50, 0.00, -0.00, -0.50, 690.0, 95.0)"></image></g></g><g><clipPath id="clip0x6000012a4620"><path d="M 688.2 11.1 L 934.6 11.1 L 934.6 95.4 L 688.2 95.4 Z M 688.2 11.1 "></path></clipPath><g clip-path="url(#clip0x6000012a4620)"><text xml:space="preserve" font-family="Helvetica-Bold,Helvetica" font-weight="bold" font-size="24.0" fill="#FEFFFE" transform="matrix(1.00, 0.00, -0.00, -1.00, 751.4, 44.1)">F</text><text xml:space="preserve" font-family="Helvetica-Bold,Helvetica" font-weight="bold" font-size="24.0" fill="#FEFFFE" transform="matrix(1.00, 0.00, -0.00, -1.00, 766.0, 44.1)">e</text><text xml:space="preserve" font-family="Helvetica-Bold,Helvetica" font-weight="bold" font-size="24.0" fill="#FEFFFE" transform="matrix(1.00, 0.00, -0.00, -1.00, 779.4, 44.1)">a</text><text xml:space="preserve" font-family="Helvetica-Bold,Helvetica" font-weight="bold" font-size="24.0" fill="#FEFFFE" transform="matrix(1.00, 0.00, -0.00, -1.00, 792.7, 44.1)">t</text><text xml:space="preserve" font-family="Helvetica-Bold,Helvetica" font-weight="bold" font-size="24.0" fill="#FEFFFE" transform="matrix(1.00, 0.00, -0.00, -1.00, 800.7, 44.1)">u</text><text xml:space="preserve" font-family="Helvetica-Bold,Helvetica" font-weight="bold" font-size="24.0" fill="#FEFFFE" transform="matrix(1.00, 0.00, -0.00, -1.00, 815.4, 44.1)">r</text><text xml:space="preserve" font-family="Helvetica-Bold,Helvetica" font-weight="bold" font-size="24.0" fill="#FEFFFE" transform="matrix(1.00, 0.00, -0.00, -1.00, 824.7, 44.1)">e</text><text xml:space="preserve" font-family="Helvetica-Bold,Helvetica" font-weight="bold" font-size="24.0" fill="#FEFFFE" transform="matrix(1.00, 0.00, -0.00, -1.00, 838.1, 44.1)"> </text><text xml:space="preserve" font-family="Helvetica-Bold,Helvetica" font-weight="bold" font-size="24.0" fill="#FEFFFE" transform="matrix(1.00, 0.00, -0.00, -1.00, 844.7, 44.1)">#</text><text xml:space="preserve" font-family="Helvetica-Bold,Helvetica" font-weight="bold" font-size="24.0" fill="#FEFFFE" transform="matrix(1.00, 0.00, -0.00, -1.00, 858.1, 44.1)">1</text></g></g><path d="M -0.4 0.1 L 13.1 0.1 L 15.6 0.1 " fill="none" stroke="#000000" stroke-width="5.00" transform="matrix(0.00, 1.00, 1.00, 0.00, 811.4, 98.4)"></path><path d="M 821.7 111.5 L 811.5 131.9 L 801.3 111.5 Z M 821.7 111.5 " fill="#000000"></path><text xml:space="preserve" font-family="Helvetica-Light,Helvetica" font-size="80.0" fill="#000000" transform="matrix(1.00, 0.00, -0.00, -1.00, 260.8, 692.1)">F</text><text xml:space="preserve" font-family="Helvetica-Light,Helvetica" font-size="80.0" fill="#000000" transform="matrix(1.00, 0.00, -0.00, -1.00, 305.2, 692.1)">u</text><text xml:space="preserve" font-family="Helvetica-Light,Helvetica" font-size="80.0" fill="#000000" transform="matrix(1.00, 0.00, -0.00, -1.00, 349.7, 692.1)">s</text><text xml:space="preserve" font-family="Helvetica-Light,Helvetica" font-size="80.0" fill="#000000" transform="matrix(1.00, 0.00, -0.00, -1.00, 389.7, 692.1)">i</text><text xml:space="preserve" font-family="Helvetica-Light,Helvetica" font-size="80.0" fill="#000000" transform="matrix(1.00, 0.00, -0.00, -1.00, 407.5, 692.1)">รณ</text><text xml:space="preserve" font-family="Helvetica-Light,Helvetica" font-size="80.0" fill="#000000" transform="matrix(1.00, 0.00, -0.00, -1.00, 452.0, 692.1)">n</text><text xml:space="preserve" font-family="Helvetica-Light,Helvetica" font-size="80.0" fill="#000000" transform="matrix(1.00, 0.00, -0.00, -1.00, 496.4, 692.1)"> </text><text xml:space="preserve" font-family="Helvetica-Light,Helvetica" font-size="80.0" fill="#000000" transform="matrix(1.00, 0.00, -0.00, -1.00, 518.7, 692.1)">B</text><text xml:space="preserve" font-family="Helvetica-Light,Helvetica" font-size="80.0" fill="#000000" transform="matrix(1.00, 0.00, -0.00, -1.00, 572.0, 692.1)">รก</text><text xml:space="preserve" font-family="Helvetica-Light,Helvetica" font-size="80.0" fill="#000000" transform="matrix(1.00, 0.00, -0.00, -1.00, 616.5, 692.1)">s</text><text xml:space="preserve" font-family="Helvetica-Light,Helvetica" font-size="80.0" fill="#000000" transform="matrix(1.00, 0.00, -0.00, -1.00, 656.5, 692.1)">i</text><text xml:space="preserve" font-family="Helvetica-Light,Helvetica" font-size="80.0" fill="#000000" transform="matrix(1.00, 0.00, -0.00, -1.00, 674.3, 692.1)">c</text><text xml:space="preserve" font-family="Helvetica-Light,Helvetica" font-size="80.0" fill="#000000" transform="matrix(1.00, 0.00, -0.00, -1.00, 718.8, 692.1)">a</text><text xml:space="preserve" font-family="Helvetica-Light,Helvetica" font-size="80.0" fill="#000000" transform="matrix(1.00, 0.00, -0.00, -1.00, 763.2, 692.1)"> </text><text xml:space="preserve" font-family="Helvetica-Light,Helvetica" font-size="20.0" fill="#000000" transform="matrix(1.00, 0.00, -0.00, -1.00, 421.6, 654.3)">F</text><text xml:space="preserve" font-family="Helvetica-Light,Helvetica" font-size="20.0" fill="#000000" transform="matrix(1.00, 0.00, -0.00, -1.00, 432.7, 654.3)">a</text><text xml:space="preserve" font-family="Helvetica-Light,Helvetica" font-size="20.0" fill="#000000" transform="matrix(1.00, 0.00, -0.00, -1.00, 443.9, 654.3)">s</text><text xml:space="preserve" font-family="Helvetica-Light,Helvetica" font-size="20.0" fill="#000000" transform="matrix(1.00, 0.00, -0.00, -1.00, 453.9, 654.3)">t</text><text xml:space="preserve" font-family="Helvetica-Light,Helvetica" font-size="20.0" fill="#000000" transform="matrix(1.00, 0.00, -0.00, -1.00, 459.4, 654.3)">-</text><text xml:space="preserve" font-family="Helvetica-Light,Helvetica" font-size="20.0" fill="#000000" transform="matrix(1.00, 0.00, -0.00, -1.00, 466.1, 654.3)">F</text><text xml:space="preserve" font-family="Helvetica-Light,Helvetica" font-size="20.0" fill="#000000" transform="matrix(1.00, 0.00, -0.00, -1.00, 477.2, 654.3)">o</text><text xml:space="preserve" font-family="Helvetica-Light,Helvetica" font-size="20.0" fill="#000000" transform="matrix(1.00, 0.00, -0.00, -1.00, 488.3, 654.3)">r</text><text xml:space="preserve" font-family="Helvetica-Light,Helvetica" font-size="20.0" fill="#000000" transform="matrix(1.00, 0.00, -0.00, -1.00, 495.0, 654.3)">w</text><text xml:space="preserve" font-family="Helvetica-Light,Helvetica" font-size="20.0" fill="#000000" transform="matrix(1.00, 0.00, -0.00, -1.00, 509.4, 654.3)">a</text><text xml:space="preserve" font-family="Helvetica-Light,Helvetica" font-size="20.0" fill="#000000" transform="matrix(1.00, 0.00, -0.00, -1.00, 520.5, 654.3)">r</text><text xml:space="preserve" font-family="Helvetica-Light,Helvetica" font-size="20.0" fill="#000000" transform="matrix(1.00, 0.00, -0.00, -1.00, 526.8, 654.3)">d</text><text xml:space="preserve" font-family="Helvetica-Light,Helvetica" font-size="20.0" fill="#000000" transform="matrix(1.00, 0.00, -0.00, -1.00, 539.1, 654.3)"> </text><text xml:space="preserve" font-family="Helvetica-Light,Helvetica" font-size="20.0" fill="#000000" transform="matrix(1.00, 0.00, -0.00, -1.00, 544.6, 654.3)">M</text><text xml:space="preserve" font-family="Helvetica-Light,Helvetica" font-size="20.0" fill="#000000" transform="matrix(1.00, 0.00, -0.00, -1.00, 561.3, 654.3)">e</text><text xml:space="preserve" font-family="Helvetica-Light,Helvetica" font-size="20.0" fill="#000000" transform="matrix(1.00, 0.00, -0.00, -1.00, 572.4, 654.3)">r</text><text xml:space="preserve" font-family="Helvetica-Light,Helvetica" font-size="20.0" fill="#000000" transform="matrix(1.00, 0.00, -0.00, -1.00, 579.1, 654.3)">g</text><text xml:space="preserve" font-family="Helvetica-Light,Helvetica" font-size="20.0" fill="#000000" transform="matrix(1.00, 0.00, -0.00, -1.00, 591.3, 654.3)">e</text><image xlink:href="4B85B8F1C1D685903121684ACFC6FF77.png" width="248.00" height="90.00" transform="matrix(1.00, 0.00, -0.00, -1.00, 387.8, 214.6)" opacity="0.50"></image><g><clipPath id="clip0x6000012a49e0"><path d="M 390.8 143.1 L 391.0 199.8 C 391.0 207.4 396.9 214.0 404.5 214.0 L 619.5 214.0 C 627.1 214.0 633.0 207.4 633.0 199.8 L 633.0 143.1 C 633.0 135.5 627.1 129.0 619.5 129.0 L 404.5 129.0 C 396.9 129.0 390.8 135.5 390.8 143.1 Z M 390.8 143.1 "></path></clipPath><g clip-path="url(#clip0x6000012a49e0)"><image xlink:href="../../3BE49F37-14FE-4738-9523-6C66365DB277/assets/C3C0FC898C94653CAF8AD846D6CCD108.png" width="600.00" height="600.00" transform="matrix(0.50, 0.00, -0.00, -0.50, 390.8, 214.0)"></image></g></g><g><clipPath id="clip0x608000caaa40"><path d="M 388.8 129.3 L 635.2 129.3 L 635.2 213.6 L 388.8 213.6 Z M 388.8 129.3 "></path></clipPath><g clip-path="url(#clip0x608000caaa40)"><text xml:space="preserve" font-family="Helvetica-Light,Helvetica" font-size="24.0" fill="#FEFFFE" transform="matrix(1.00, 0.00, -0.00, -1.00, 496.7, 162.4)">C</text><text xml:space="preserve" font-family="Helvetica-Light,Helvetica" font-size="24.0" fill="#FEFFFE" transform="matrix(1.00, 0.00, -0.00, -1.00, 514.0, 162.4)">3</text></g></g><path d="M 0.0 0.0 L 216.1 0.0 L 218.6 0.0 " fill="none" stroke="#000000" stroke-width="5.00" transform="matrix(-0.94, 0.34, 0.34, 0.94, 387.1, 172.1)"></path><path d="M 187.1 254.4 L 164.4 251.7 L 180.2 235.2 Z M 187.1 254.4 " fill="#000000"></path><image xlink:href="1E55E5D236AA529C68B9E1673A0A3964.png" width="248.00" height="90.00" transform="matrix(1.00, 0.00, -0.00, -1.00, 380.7, 336.6)" opacity="0.50"></image><g><clipPath id="clip0x6000012a4a40"><path d="M 383.7 265.1 L 384.0 321.8 C 384.0 329.4 389.9 336.0 397.5 336.0 L 612.4 336.0 C 620.0 336.0 626.0 329.4 626.0 321.8 L 626.0 265.1 C 626.0 257.5 620.0 251.0 612.4 251.0 L 397.5 251.0 C 389.9 251.0 383.7 257.5 383.7 265.1 Z M 383.7 265.1 "></path></clipPath><g clip-path="url(#clip0x6000012a4a40)"><image xlink:href="../../3BE49F37-14FE-4738-9523-6C66365DB277/assets/C3C0FC898C94653CAF8AD846D6CCD108.png" width="600.00" height="600.00" transform="matrix(0.50, 0.00, -0.00, -0.50, 383.7, 336.0)"></image></g></g><g><clipPath id="clip0x6000012a4e60"><path d="M 381.7 251.3 L 628.2 251.3 L 628.2 335.6 L 381.7 335.6 Z M 381.7 251.3 "></path></clipPath><g clip-path="url(#clip0x6000012a4e60)"><text xml:space="preserve" font-family="Helvetica-Light,Helvetica" font-size="24.0" fill="#FEFFFE" transform="matrix(1.00, 0.00, -0.00, -1.00, 489.6, 284.4)">C</text><text xml:space="preserve" font-family="Helvetica-Light,Helvetica" font-size="24.0" fill="#FEFFFE" transform="matrix(1.00, 0.00, -0.00, -1.00, 506.9, 284.4)">4</text></g></g><image xlink:href="4B3C14D85484A46BAA184DACC304E9DF.png" width="250.00" height="92.00" transform="matrix(1.00, 0.00, -0.00, -1.00, 380.7, 464.7)" opacity="0.50"></image><g><clipPath id="clip0x6000012a5040"><path d="M 383.7 390.1 L 384.0 446.9 C 384.0 454.5 389.9 461.0 397.5 461.0 L 612.4 461.0 C 620.0 461.0 626.0 454.5 626.0 446.9 L 626.0 390.1 C 626.0 382.5 620.0 376.0 612.4 376.0 L 397.5 376.0 C 389.9 376.0 383.7 382.5 383.7 390.1 Z M 383.7 390.1 "></path></clipPath><g clip-path="url(#clip0x6000012a5040)"><image xlink:href="../../3BE49F37-14FE-4738-9523-6C66365DB277/assets/57C63BC369DF2E161F93135AB5988468.png" width="600.00" height="600.00" transform="matrix(0.50, 0.00, -0.00, -0.50, 383.7, 461.0)"></image></g></g><g><clipPath id="clip0x6000012a4fe0"><path d="M 381.7 376.4 L 628.2 376.4 L 628.2 460.7 L 381.7 460.7 Z M 381.7 376.4 "></path></clipPath><g clip-path="url(#clip0x6000012a4fe0)"><text xml:space="preserve" font-family="Helvetica-Bold,Helvetica" font-weight="bold" font-size="24.0" fill="#FEFFFE" transform="matrix(1.00, 0.00, -0.00, -1.00, 444.9, 409.4)">F</text><text xml:space="preserve" font-family="Helvetica-Bold,Helvetica" font-weight="bold" font-size="24.0" fill="#FEFFFE" transform="matrix(1.00, 0.00, -0.00, -1.00, 459.6, 409.4)">e</text><text xml:space="preserve" font-family="Helvetica-Bold,Helvetica" font-weight="bold" font-size="24.0" fill="#FEFFFE" transform="matrix(1.00, 0.00, -0.00, -1.00, 472.9, 409.4)">a</text><text xml:space="preserve" font-family="Helvetica-Bold,Helvetica" font-weight="bold" font-size="24.0" fill="#FEFFFE" transform="matrix(1.00, 0.00, -0.00, -1.00, 486.3, 409.4)">t</text><text xml:space="preserve" font-family="Helvetica-Bold,Helvetica" font-weight="bold" font-size="24.0" fill="#FEFFFE" transform="matrix(1.00, 0.00, -0.00, -1.00, 494.3, 409.4)">u</text><text xml:space="preserve" font-family="Helvetica-Bold,Helvetica" font-weight="bold" font-size="24.0" fill="#FEFFFE" transform="matrix(1.00, 0.00, -0.00, -1.00, 508.9, 409.4)">r</text><text xml:space="preserve" font-family="Helvetica-Bold,Helvetica" font-weight="bold" font-size="24.0" fill="#FEFFFE" transform="matrix(1.00, 0.00, -0.00, -1.00, 518.3, 409.4)">e</text><text xml:space="preserve" font-family="Helvetica-Bold,Helvetica" font-weight="bold" font-size="24.0" fill="#FEFFFE" transform="matrix(1.00, 0.00, -0.00, -1.00, 531.6, 409.4)"> </text><text xml:space="preserve" font-family="Helvetica-Bold,Helvetica" font-weight="bold" font-size="24.0" fill="#FEFFFE" transform="matrix(1.00, 0.00, -0.00, -1.00, 538.3, 409.4)">#</text><text xml:space="preserve" font-family="Helvetica-Bold,Helvetica" font-weight="bold" font-size="24.0" fill="#FEFFFE" transform="matrix(1.00, 0.00, -0.00, -1.00, 551.6, 409.4)">2</text></g></g><path d="M -0.1 0.0 L 84.5 0.0 L 86.9 0.0 " fill="none" stroke="#000000" stroke-width="5.00" transform="matrix(-1.00, 0.00, 0.00, 1.00, 380.9, 293.5)"></path><path d="M 296.5 303.7 L 276.1 293.5 L 296.5 283.3 Z M 296.5 303.7 " fill="#000000"></path><image xlink:href="61D6235A26C48D1CB82EB3CEB5E2F25F.png" width="248.00" height="90.00" transform="matrix(1.00, 0.00, -0.00, -1.00, 687.2, 214.6)" opacity="0.50"></image><g><clipPath id="clip0x6000012a5a00"><path d="M 690.2 143.1 L 690.0 199.8 C 690.0 207.4 696.3 214.0 703.9 214.0 L 918.9 214.0 C 926.5 214.0 933.0 207.4 933.0 199.8 L 933.0 143.1 C 933.0 135.5 926.5 129.0 918.9 129.0 L 703.9 129.0 C 696.3 129.0 690.2 135.5 690.2 143.1 Z M 690.2 143.1 "></path></clipPath><g clip-path="url(#clip0x6000012a5a00)"><image xlink:href="../../3BE49F37-14FE-4738-9523-6C66365DB277/assets/C3C0FC898C94653CAF8AD846D6CCD108.png" width="600.00" height="600.00" transform="matrix(0.50, 0.00, -0.00, -0.50, 690.0, 214.0)"></image></g></g><g><clipPath id="clip0x6000012a59a0"><path d="M 688.2 129.3 L 934.6 129.3 L 934.6 213.6 L 688.2 213.6 Z M 688.2 129.3 "></path></clipPath><g clip-path="url(#clip0x6000012a59a0)"><text xml:space="preserve" font-family="Helvetica-Light,Helvetica" font-size="24.0" fill="#FEFFFE" transform="matrix(1.00, 0.00, -0.00, -1.00, 796.1, 162.4)">C</text><text xml:space="preserve" font-family="Helvetica-Light,Helvetica" font-size="24.0" fill="#FEFFFE" transform="matrix(1.00, 0.00, -0.00, -1.00, 813.4, 162.4)">5</text></g></g><path d="M -0.2 0.0 L 35.3 0.0 L 37.8 0.0 " fill="none" stroke="#000000" stroke-width="5.00" transform="matrix(-1.00, 0.00, 0.00, 1.00, 691.8, 171.5)"></path><path d="M 656.5 181.7 L 636.1 171.5 L 656.5 161.3 Z M 656.5 181.7 " fill="#000000"></path><path d="M 0.0 85.0 L -0.1 15.0 C -0.1 6.7 6.7 0.5 15.0 0.5 L 238.6 0.5 C 246.9 0.5 253.9 6.7 253.9 15.0 L 253.9 85.0 C 253.9 93.3 246.9 100.5 238.6 100.5 L 15.0 100.5 C 6.7 100.5 0.0 93.3 0.0 85.0 Z M 0.0 85.0 " fill="none" stroke="#E72736" stroke-width="4.00" transform="matrix(1.00, 0.00, 0.00, -1.00, 25.1, 343.5)"></path><path d="M -0.3 0.5 L 19.4 0.5 L 21.7 0.5 " fill="none" stroke="#000000" stroke-width="5.00" transform="matrix(0.00, -1.00, -1.00, 0.00, 505.0, 373.7)"></path><path d="M 494.3 354.5 L 504.5 334.1 L 514.7 354.5 Z M 494.3 354.5 " fill="#000000"></path><path d="M -0.5 0.4 L 13.1 0.4 L 15.5 0.4 " fill="none" stroke="#000000" stroke-width="5.00" transform="matrix(0.00, -1.00, -1.00, 0.00, 151.9, 375.5)"></path><path d="M 141.3 362.5 L 151.5 342.1 L 161.7 362.5 Z M 141.3 362.5 " fill="#000000"></path></g></svg>