<?xml version="1.0" encoding="UTF-8" standalone="no"?><svg xmlns="http://www.w3.org/2000/svg" xmlns:xlink="http://www.w3.org/1999/xlink" clip-rule="evenodd" stroke-miterlimit="10" viewBox="0 0 251 98"><desc>SVG generated by Keynote</desc><defs></defs><g transform="matrix(1.00, 0.00, -0.00, -1.00, 0.0, 98.0)"><image xlink:href="318DCFF3AA74A799AEB917A91CB42FD5.png" width="248.00" height="90.00" transform="matrix(1.00, 0.00, -0.00, -1.00, 1.4, 92.2)" opacity="0.50"></image><g><clipPath id="clip0x6000010b6da0"><path d="M 4.4 20.6 L 4.0 77.4 C 4.0 85.0 10.6 91.0 18.2 91.0 L 233.1 91.0 C 240.7 91.0 247.0 85.0 247.0 77.4 L 247.0 20.6 C 247.0 13.0 240.7 7.0 233.1 7.0 L 18.2 7.0 C 10.6 7.0 4.4 13.0 4.4 20.6 Z M 4.4 20.6 "></path></clipPath><g clip-path="url(#clip0x6000010b6da0)"><image xlink:href="../../3BE49F37-14FE-4738-9523-6C66365DB277/assets/C3C0FC898C94653CAF8AD846D6CCD108.png" width="600.00" height="600.00" transform="matrix(0.50, 0.00, -0.00, -0.50, 4.0, 91.0)"></image></g></g><g><clipPath id="clip0x608000abed80"><path d="M 2.4 6.9 L 248.9 6.9 L 248.9 91.2 L 2.4 91.2 Z M 2.4 6.9 "></path></clipPath><g clip-path="url(#clip0x608000abed80)"><text xml:space="preserve" font-family="Helvetica-Light,Helvetica" font-size="24.0" fill="#FEFFFE" transform="matrix(1.00, 0.00, -0.00, -1.00, 110.3, 39.9)">C</text><text xml:space="preserve" font-family="Helvetica-Light,Helvetica" font-size="24.0" fill="#FEFFFE" transform="matrix(1.00, 0.00, -0.00, -1.00, 127.6, 39.9)">4</text></g></g></g></svg>