<?xml version="1.0" encoding="UTF-8" standalone="no"?><svg xmlns="http://www.w3.org/2000/svg" xmlns:xlink="http://www.w3.org/1999/xlink" clip-rule="evenodd" stroke-miterlimit="10" viewBox="0 0 251 97"><desc>SVG generated by Keynote</desc><defs></defs><g transform="matrix(1.00, 0.00, -0.00, -1.00, 0.0, 97.0)"><image xlink:href="../../F5B9E6DA-444D-4211-8D8C-9D5FCD8044AD/assets/61D6235A26C48D1CB82EB3CEB5E2F25F.png" width="248.00" height="90.00" transform="matrix(1.00, 0.00, -0.00, -1.00, 1.2, 91.6)" opacity="0.50"></image><g><clipPath id="clip0x6000012ac1e0"><path d="M 4.2 20.1 L 4.0 76.8 C 4.0 84.4 10.3 91.0 17.9 91.0 L 232.9 91.0 C 240.5 91.0 247.0 84.4 247.0 76.8 L 247.0 20.1 C 247.0 12.5 240.5 6.0 232.9 6.0 L 17.9 6.0 C 10.3 6.0 4.2 12.5 4.2 20.1 Z M 4.2 20.1 "></path></clipPath><g clip-path="url(#clip0x6000012ac1e0)"><image xlink:href="../../3BE49F37-14FE-4738-9523-6C66365DB277/assets/C3C0FC898C94653CAF8AD846D6CCD108.png" width="600.00" height="600.00" transform="matrix(0.50, 0.00, -0.00, -0.50, 4.0, 91.0)"></image></g></g><g><clipPath id="clip0x608000caeca0"><path d="M 2.2 6.3 L 248.6 6.3 L 248.6 90.6 L 2.2 90.6 Z M 2.2 6.3 "></path></clipPath><g clip-path="url(#clip0x608000caeca0)"><text xml:space="preserve" font-family="Helvetica-Light,Helvetica" font-size="24.0" fill="#FEFFFE" transform="matrix(1.00, 0.00, -0.00, -1.00, 110.1, 39.4)">C</text><text xml:space="preserve" font-family="Helvetica-Light,Helvetica" font-size="24.0" fill="#FEFFFE" transform="matrix(1.00, 0.00, -0.00, -1.00, 127.4, 39.4)">5</text></g></g></g></svg>