<?xml version="1.0" encoding="UTF-8" standalone="no"?><svg xmlns="http://www.w3.org/2000/svg" xmlns:xlink="http://www.w3.org/1999/xlink" clip-rule="evenodd" stroke-miterlimit="10" viewBox="0 0 251 98"><desc>SVG generated by Keynote</desc><defs></defs><g transform="matrix(1.00, 0.00, -0.00, -1.00, 0.0, 98.0)"><image xlink:href="../../0C03AB89-89A8-4F15-9CEE-E21490CCC57F/assets/660B634615F86F41652E883F7C683884.png" width="248.00" height="90.00" transform="matrix(1.00, 0.00, -0.00, -1.00, 1.1, 92.0)" opacity="0.50"></image><g><clipPath id="clip0x608000aacd20"><path d="M 4.1 20.5 L 4.0 77.2 C 4.0 84.8 10.2 91.0 17.8 91.0 L 232.8 91.0 C 240.4 91.0 247.0 84.8 247.0 77.2 L 247.0 20.5 C 247.0 12.9 240.4 7.0 232.8 7.0 L 17.8 7.0 C 10.2 7.0 4.1 12.9 4.1 20.5 Z M 4.1 20.5 "></path></clipPath><g clip-path="url(#clip0x608000aacd20)"><image xlink:href="../../3BE49F37-14FE-4738-9523-6C66365DB277/assets/C3C0FC898C94653CAF8AD846D6CCD108.png" width="600.00" height="600.00" transform="matrix(0.50, 0.00, -0.00, -0.50, 4.0, 91.0)"></image></g></g><g><clipPath id="clip0x600000ebeb40"><path d="M 2.1 6.7 L 248.5 6.7 L 248.5 91.0 L 2.1 91.0 Z M 2.1 6.7 "></path></clipPath><g clip-path="url(#clip0x600000ebeb40)"><text xml:space="preserve" font-family="Helvetica-Light,Helvetica" font-size="24.0" fill="#FEFFFE" transform="matrix(1.00, 0.00, -0.00, -1.00, 110.0, 39.8)">C</text><text xml:space="preserve" font-family="Helvetica-Light,Helvetica" font-size="24.0" fill="#FEFFFE" transform="matrix(1.00, 0.00, -0.00, -1.00, 127.3, 39.8)">2</text></g></g></g></svg>