<?xml version="1.0" encoding="UTF-8" standalone="no"?><svg xmlns="http://www.w3.org/2000/svg" xmlns:xlink="http://www.w3.org/1999/xlink" clip-rule="evenodd" stroke-miterlimit="10" viewBox="0 0 1024 768"><desc>SVG generated by Keynote</desc><defs></defs><g transform="matrix(1.00, 0.00, -0.00, -1.00, 0.0, 768.0)"><path d="M 0.0 768.0 L 1024.0 768.0 L 1024.0 0.0 L 0.0 0.0 Z M 0.0 768.0 " fill="#FEFFFF"></path><text xml:space="preserve" font-family="Helvetica-Light,Helvetica" font-size="40.0" fill="#000000" transform="matrix(1.00, 0.00, -0.00, -1.00, 302.7, 615.9)">L</text><text xml:space="preserve" font-family="Helvetica-Light,Helvetica" font-size="40.0" fill="#000000" transform="matrix(1.00, 0.00, -0.00, -1.00, 324.9, 615.9)">a</text><text xml:space="preserve" font-family="Helvetica-Light,Helvetica" font-size="40.0" fill="#000000" transform="matrix(1.00, 0.00, -0.00, -1.00, 347.2, 615.9)"> </text><text xml:space="preserve" font-family="Helvetica-Light,Helvetica" font-size="40.0" fill="#000000" transform="matrix(1.00, 0.00, -0.00, -1.00, 358.3, 615.9)">t</text><text xml:space="preserve" font-family="Helvetica-Light,Helvetica" font-size="40.0" fill="#000000" transform="matrix(1.00, 0.00, -0.00, -1.00, 369.4, 615.9)">e</text><text xml:space="preserve" font-family="Helvetica-Light,Helvetica" font-size="40.0" fill="#000000" transform="matrix(1.00, 0.00, -0.00, -1.00, 391.6, 615.9)">r</text><text xml:space="preserve" font-family="Helvetica-Light,Helvetica" font-size="40.0" fill="#000000" transform="matrix(1.00, 0.00, -0.00, -1.00, 405.7, 615.9)">m</text><text xml:space="preserve" font-family="Helvetica-Light,Helvetica" font-size="40.0" fill="#000000" transform="matrix(1.00, 0.00, -0.00, -1.00, 439.0, 615.9)">i</text><text xml:space="preserve" font-family="Helvetica-Light,Helvetica" font-size="40.0" fill="#000000" transform="matrix(1.00, 0.00, -0.00, -1.00, 447.9, 615.9)">n</text><text xml:space="preserve" font-family="Helvetica-Light,Helvetica" font-size="40.0" fill="#000000" transform="matrix(1.00, 0.00, -0.00, -1.00, 470.1, 615.9)">a</text><text xml:space="preserve" font-family="Helvetica-Light,Helvetica" font-size="40.0" fill="#000000" transform="matrix(1.00, 0.00, -0.00, -1.00, 492.4, 615.9)">l</text><text xml:space="preserve" font-family="Helvetica-Light,Helvetica" font-size="40.0" fill="#000000" transform="matrix(1.00, 0.00, -0.00, -1.00, 501.2, 615.9)"> </text><text xml:space="preserve" font-family="Helvetica-Light,Helvetica" font-size="40.0" fill="#000000" transform="matrix(1.00, 0.00, -0.00, -1.00, 512.4, 615.9)">e</text><text xml:space="preserve" font-family="Helvetica-Light,Helvetica" font-size="40.0" fill="#000000" transform="matrix(1.00, 0.00, -0.00, -1.00, 534.6, 615.9)">s</text><text xml:space="preserve" font-family="Helvetica-Light,Helvetica" font-size="40.0" fill="#000000" transform="matrix(1.00, 0.00, -0.00, -1.00, 554.6, 615.9)"> </text><text xml:space="preserve" font-family="Helvetica-Light,Helvetica" font-size="40.0" fill="#000000" transform="matrix(1.00, 0.00, -0.00, -1.00, 565.7, 615.9)">t</text><text xml:space="preserve" font-family="Helvetica-Light,Helvetica" font-size="40.0" fill="#000000" transform="matrix(1.00, 0.00, -0.00, -1.00, 576.8, 615.9)">u</text><text xml:space="preserve" font-family="Helvetica-Light,Helvetica" font-size="40.0" fill="#000000" transform="matrix(1.00, 0.00, -0.00, -1.00, 599.1, 615.9)"> </text><text xml:space="preserve" font-family="Helvetica-Light,Helvetica" font-size="40.0" fill="#000000" transform="matrix(1.00, 0.00, -0.00, -1.00, 610.2, 615.9)">a</text><text xml:space="preserve" font-family="Helvetica-Light,Helvetica" font-size="40.0" fill="#000000" transform="matrix(1.00, 0.00, -0.00, -1.00, 632.4, 615.9)">m</text><text xml:space="preserve" font-family="Helvetica-Light,Helvetica" font-size="40.0" fill="#000000" transform="matrix(1.00, 0.00, -0.00, -1.00, 665.8, 615.9)">i</text><text xml:space="preserve" font-family="Helvetica-Light,Helvetica" font-size="40.0" fill="#000000" transform="matrix(1.00, 0.00, -0.00, -1.00, 674.6, 615.9)">g</text><text xml:space="preserve" font-family="Helvetica-Light,Helvetica" font-size="40.0" fill="#000000" transform="matrix(1.00, 0.00, -0.00, -1.00, 699.1, 615.9)">a</text><text xml:space="preserve" font-family="Helvetica-Light,Helvetica" font-size="40.0" fill="#000000" transform="matrix(1.00, 0.00, -0.00, -1.00, 341.5, 68.5)">U</text><text xml:space="preserve" font-family="Helvetica-Light,Helvetica" font-size="40.0" fill="#000000" transform="matrix(1.00, 0.00, -0.00, -1.00, 370.4, 68.5)">s</text><text xml:space="preserve" font-family="Helvetica-Light,Helvetica" font-size="40.0" fill="#000000" transform="matrix(1.00, 0.00, -0.00, -1.00, 390.4, 68.5)">o</text><text xml:space="preserve" font-family="Helvetica-Light,Helvetica" font-size="40.0" fill="#000000" transform="matrix(1.00, 0.00, -0.00, -1.00, 412.6, 68.5)"> </text><text xml:space="preserve" font-family="Helvetica-Light,Helvetica" font-size="40.0" fill="#000000" transform="matrix(1.00, 0.00, -0.00, -1.00, 423.8, 68.5)">b</text><text xml:space="preserve" font-family="Helvetica-Light,Helvetica" font-size="40.0" fill="#000000" transform="matrix(1.00, 0.00, -0.00, -1.00, 448.2, 68.5)">รก</text><text xml:space="preserve" font-family="Helvetica-Light,Helvetica" font-size="40.0" fill="#000000" transform="matrix(1.00, 0.00, -0.00, -1.00, 470.4, 68.5)">s</text><text xml:space="preserve" font-family="Helvetica-Light,Helvetica" font-size="40.0" fill="#000000" transform="matrix(1.00, 0.00, -0.00, -1.00, 490.4, 68.5)">i</text><text xml:space="preserve" font-family="Helvetica-Light,Helvetica" font-size="40.0" fill="#000000" transform="matrix(1.00, 0.00, -0.00, -1.00, 499.3, 68.5)">c</text><text xml:space="preserve" font-family="Helvetica-Light,Helvetica" font-size="40.0" fill="#000000" transform="matrix(1.00, 0.00, -0.00, -1.00, 521.6, 68.5)">o</text><text xml:space="preserve" font-family="Helvetica-Light,Helvetica" font-size="40.0" fill="#000000" transform="matrix(1.00, 0.00, -0.00, -1.00, 543.8, 68.5)"> </text><text xml:space="preserve" font-family="Helvetica-Light,Helvetica" font-size="40.0" fill="#000000" transform="matrix(1.00, 0.00, -0.00, -1.00, 554.9, 68.5)">d</text><text xml:space="preserve" font-family="Helvetica-Light,Helvetica" font-size="40.0" fill="#000000" transform="matrix(1.00, 0.00, -0.00, -1.00, 579.4, 68.5)">e</text><text xml:space="preserve" font-family="Helvetica-Light,Helvetica" font-size="40.0" fill="#000000" transform="matrix(1.00, 0.00, -0.00, -1.00, 601.6, 68.5)"> </text><text xml:space="preserve" font-family="Helvetica-Light,Helvetica" font-size="40.0" fill="#000000" transform="matrix(1.00, 0.00, -0.00, -1.00, 612.7, 68.5)">g</text><text xml:space="preserve" font-family="Helvetica-Light,Helvetica" font-size="40.0" fill="#000000" transform="matrix(1.00, 0.00, -0.00, -1.00, 637.2, 68.5)">i</text><text xml:space="preserve" font-family="Helvetica-Light,Helvetica" font-size="40.0" fill="#000000" transform="matrix(1.00, 0.00, -0.00, -1.00, 646.0, 68.5)">t</text><image xlink:href="../../4245A0BF-0C90-4EA8-B2D1-8A449A7A3A4E/assets/DBAC1FE4CE2EAD7B1734E0033DDB93F7.png" width="1000.00" height="458.00" transform="matrix(0.85, 0.00, -0.00, -0.85, 86.0, 579.0)"></image></g></svg>