<?xml version="1.0" encoding="UTF-8" standalone="no"?><svg xmlns="http://www.w3.org/2000/svg" xmlns:xlink="http://www.w3.org/1999/xlink" clip-rule="evenodd" stroke-miterlimit="10" viewBox="0 0 255 95"><desc>SVG generated by Keynote</desc><defs></defs><g transform="matrix(1.00, 0.00, -0.00, -1.00, 0.0, 95.0)"><image xlink:href="../../0C03AB89-89A8-4F15-9CEE-E21490CCC57F/assets/4A582434206291B833E8C0AA5BB1D5EE.png" width="250.00" height="92.00" transform="matrix(1.00, 0.00, -0.00, -1.00, 3.4, 93.7)" opacity="0.50"></image><g><clipPath id="clip0x608000aa6b40"><path d="M 6.4 19.1 L 6.0 75.9 C 6.0 83.5 12.6 90.0 20.2 90.0 L 235.1 90.0 C 242.7 90.0 249.0 83.5 249.0 75.9 L 249.0 19.1 C 249.0 11.5 242.7 5.0 235.1 5.0 L 20.2 5.0 C 12.6 5.0 6.4 11.5 6.4 19.1 Z M 6.4 19.1 "></path></clipPath><g clip-path="url(#clip0x608000aa6b40)"><image xlink:href="../../3BE49F37-14FE-4738-9523-6C66365DB277/assets/57C63BC369DF2E161F93135AB5988468.png" width="600.00" height="600.00" transform="matrix(0.50, 0.00, -0.00, -0.50, 6.0, 90.0)"></image></g></g><g><clipPath id="clip0x600000eaf8a0"><path d="M 4.4 5.4 L 250.9 5.4 L 250.9 89.7 L 4.4 89.7 Z M 4.4 5.4 "></path></clipPath><g clip-path="url(#clip0x600000eaf8a0)"><text xml:space="preserve" font-family="Helvetica-Bold,Helvetica" font-weight="bold" font-size="24.0" fill="#FEFFFE" transform="matrix(1.00, 0.00, -0.00, -1.00, 89.0, 38.5)">M</text><text xml:space="preserve" font-family="Helvetica-Bold,Helvetica" font-weight="bold" font-size="24.0" fill="#FEFFFE" transform="matrix(1.00, 0.00, -0.00, -1.00, 108.9, 38.5)">a</text><text xml:space="preserve" font-family="Helvetica-Bold,Helvetica" font-weight="bold" font-size="24.0" fill="#FEFFFE" transform="matrix(1.00, 0.00, -0.00, -1.00, 122.3, 38.5)">s</text><text xml:space="preserve" font-family="Helvetica-Bold,Helvetica" font-weight="bold" font-size="24.0" fill="#FEFFFE" transform="matrix(1.00, 0.00, -0.00, -1.00, 135.7, 38.5)">t</text><text xml:space="preserve" font-family="Helvetica-Bold,Helvetica" font-weight="bold" font-size="24.0" fill="#FEFFFE" transform="matrix(1.00, 0.00, -0.00, -1.00, 143.6, 38.5)">e</text><text xml:space="preserve" font-family="Helvetica-Bold,Helvetica" font-weight="bold" font-size="24.0" fill="#FEFFFE" transform="matrix(1.00, 0.00, -0.00, -1.00, 157.0, 38.5)">r</text></g></g></g></svg>