<?xml version="1.0" encoding="UTF-8" standalone="no"?><svg xmlns="http://www.w3.org/2000/svg" xmlns:xlink="http://www.w3.org/1999/xlink" clip-rule="evenodd" stroke-miterlimit="10" viewBox="0 0 1024 768"><desc>SVG generated by Keynote</desc><defs></defs><g transform="matrix(1.00, 0.00, -0.00, -1.00, 0.0, 768.0)"><path d="M 0.0 768.0 L 1024.0 768.0 L 1024.0 0.0 L 0.0 0.0 Z M 0.0 768.0 " fill="#FEFFFF"></path><image xlink:href="../../3BE49F37-14FE-4738-9523-6C66365DB277/assets/A1F3C55C0EC50092477A9B0CCD54B0A6.png" width="248.00" height="90.00" transform="matrix(1.00, 0.00, -0.00, -1.00, 25.3, 358.0)" opacity="0.50"></image><g><clipPath id="clip0x608000aab460"><path d="M 28.3 286.5 L 28.0 343.2 C 28.0 350.8 34.5 357.0 42.1 357.0 L 257.0 357.0 C 264.6 357.0 271.0 350.8 271.0 343.2 L 271.0 286.5 C 271.0 278.9 264.6 273.0 257.0 273.0 L 42.1 273.0 C 34.5 273.0 28.3 278.9 28.3 286.5 Z M 28.3 286.5 "></path></clipPath><g clip-path="url(#clip0x608000aab460)"><image xlink:href="../../3BE49F37-14FE-4738-9523-6C66365DB277/assets/C3C0FC898C94653CAF8AD846D6CCD108.png" width="600.00" height="600.00" transform="matrix(0.50, 0.00, -0.00, -0.50, 28.0, 357.0)"></image></g></g><g><clipPath id="clip0x600000ebb3c0"><path d="M 26.3 272.7 L 272.8 272.7 L 272.8 357.0 L 26.3 357.0 Z M 26.3 272.7 "></path></clipPath><g clip-path="url(#clip0x600000ebb3c0)"><text xml:space="preserve" font-family="Helvetica-Light,Helvetica" font-size="24.0" fill="#FEFFFE" transform="matrix(1.00, 0.00, -0.00, -1.00, 134.2, 305.8)">C</text><text xml:space="preserve" font-family="Helvetica-Light,Helvetica" font-size="24.0" fill="#FEFFFE" transform="matrix(1.00, 0.00, -0.00, -1.00, 151.5, 305.8)">1</text></g></g><image xlink:href="../../0C03AB89-89A8-4F15-9CEE-E21490CCC57F/assets/660B634615F86F41652E883F7C683884.png" width="248.00" height="90.00" transform="matrix(1.00, 0.00, -0.00, -1.00, 380.1, 358.0)" opacity="0.50"></image><g><clipPath id="clip0x600000ebb540"><path d="M 383.1 286.5 L 383.0 343.2 C 383.0 350.8 389.2 357.0 396.8 357.0 L 611.8 357.0 C 619.4 357.0 626.0 350.8 626.0 343.2 L 626.0 286.5 C 626.0 278.9 619.4 273.0 611.8 273.0 L 396.8 273.0 C 389.2 273.0 383.1 278.9 383.1 286.5 Z M 383.1 286.5 "></path></clipPath><g clip-path="url(#clip0x600000ebb540)"><image xlink:href="../../3BE49F37-14FE-4738-9523-6C66365DB277/assets/C3C0FC898C94653CAF8AD846D6CCD108.png" width="600.00" height="600.00" transform="matrix(0.50, 0.00, -0.00, -0.50, 383.0, 357.0)"></image></g></g><g><clipPath id="clip0x600000ebb780"><path d="M 381.1 272.7 L 627.5 272.7 L 627.5 357.0 L 381.1 357.0 Z M 381.1 272.7 "></path></clipPath><g clip-path="url(#clip0x600000ebb780)"><text xml:space="preserve" font-family="Helvetica-Light,Helvetica" font-size="24.0" fill="#FEFFFE" transform="matrix(1.00, 0.00, -0.00, -1.00, 489.0, 305.8)">C</text><text xml:space="preserve" font-family="Helvetica-Light,Helvetica" font-size="24.0" fill="#FEFFFE" transform="matrix(1.00, 0.00, -0.00, -1.00, 506.3, 305.8)">2</text></g></g><image xlink:href="0CED8496CEEF4438AA1CB8B990E4649C.png" width="250.00" height="92.00" transform="matrix(1.00, 0.00, -0.00, -1.00, 380.1, 564.5)" opacity="0.50"></image><g><clipPath id="clip0x608000aab4c0"><path d="M 383.1 490.0 L 383.0 546.7 C 383.0 554.3 389.2 560.0 396.8 560.0 L 611.8 560.0 C 619.4 560.0 626.0 554.3 626.0 546.7 L 626.0 490.0 C 626.0 482.3 619.4 476.0 611.8 476.0 L 396.8 476.0 C 389.2 476.0 383.1 482.3 383.1 490.0 Z M 383.1 490.0 "></path></clipPath><g clip-path="url(#clip0x608000aab4c0)"><image xlink:href="../../3BE49F37-14FE-4738-9523-6C66365DB277/assets/57C63BC369DF2E161F93135AB5988468.png" width="600.00" height="600.00" transform="matrix(0.50, 0.00, -0.00, -0.50, 383.0, 560.0)"></image></g></g><g><clipPath id="clip0x608000aab940"><path d="M 381.1 476.2 L 627.5 476.2 L 627.5 560.5 L 381.1 560.5 Z M 381.1 476.2 "></path></clipPath><g clip-path="url(#clip0x608000aab940)"><text xml:space="preserve" font-family="Helvetica-Bold,Helvetica" font-weight="bold" font-size="24.0" fill="#FEFFFE" transform="matrix(1.00, 0.00, -0.00, -1.00, 465.6, 509.3)">M</text><text xml:space="preserve" font-family="Helvetica-Bold,Helvetica" font-weight="bold" font-size="24.0" fill="#FEFFFE" transform="matrix(1.00, 0.00, -0.00, -1.00, 485.6, 509.3)">a</text><text xml:space="preserve" font-family="Helvetica-Bold,Helvetica" font-weight="bold" font-size="24.0" fill="#FEFFFE" transform="matrix(1.00, 0.00, -0.00, -1.00, 498.9, 509.3)">s</text><text xml:space="preserve" font-family="Helvetica-Bold,Helvetica" font-weight="bold" font-size="24.0" fill="#FEFFFE" transform="matrix(1.00, 0.00, -0.00, -1.00, 512.3, 509.3)">t</text><text xml:space="preserve" font-family="Helvetica-Bold,Helvetica" font-weight="bold" font-size="24.0" fill="#FEFFFE" transform="matrix(1.00, 0.00, -0.00, -1.00, 520.3, 509.3)">e</text><text xml:space="preserve" font-family="Helvetica-Bold,Helvetica" font-weight="bold" font-size="24.0" fill="#FEFFFE" transform="matrix(1.00, 0.00, -0.00, -1.00, 533.6, 509.3)">r</text></g></g><path d="M -0.4 -0.2 L 100.5 -0.2 L 102.6 -0.2 " fill="none" stroke="#000000" stroke-width="5.00" transform="matrix(0.00, -1.00, -1.00, 0.00, 504.3, 475.6)"></path><path d="M 494.3 375.5 L 504.5 355.1 L 514.7 375.5 Z M 494.3 375.5 " fill="#000000"></path><path d="M 0.2 -0.4 L 88.2 -0.4 L 90.2 -0.4 " fill="none" stroke="#000000" stroke-width="5.00" transform="matrix(-1.00, 0.00, 0.00, 1.00, 383.2, 314.9)"></path><path d="M 295.5 324.7 L 275.1 314.5 L 295.5 304.3 Z M 295.5 324.7 " fill="#000000"></path><image xlink:href="2F329794B5B7E6288C84DBFE2BA059B0.png" width="250.00" height="92.00" transform="matrix(1.00, 0.00, -0.00, -1.00, 387.8, 224.3)" opacity="0.50"></image><g><clipPath id="clip0x600000ebbae0"><path d="M 390.8 149.8 L 391.0 206.6 C 391.0 214.2 396.9 220.0 404.5 220.0 L 619.5 220.0 C 627.1 220.0 633.0 214.2 633.0 206.6 L 633.0 149.8 C 633.0 142.2 627.1 136.0 619.5 136.0 L 404.5 136.0 C 396.9 136.0 390.8 142.2 390.8 149.8 Z M 390.8 149.8 "></path></clipPath><g clip-path="url(#clip0x600000ebbae0)"><image xlink:href="../../3BE49F37-14FE-4738-9523-6C66365DB277/assets/57C63BC369DF2E161F93135AB5988468.png" width="600.00" height="600.00" transform="matrix(0.50, 0.00, -0.00, -0.50, 390.8, 220.0)"></image></g></g><g><clipPath id="clip0x600000ebbd20"><path d="M 388.8 136.0 L 635.2 136.0 L 635.2 220.3 L 388.8 220.3 Z M 388.8 136.0 "></path></clipPath><g clip-path="url(#clip0x600000ebbd20)"><text xml:space="preserve" font-family="Helvetica-Bold,Helvetica" font-weight="bold" font-size="24.0" fill="#FEFFFE" transform="matrix(1.00, 0.00, -0.00, -1.00, 452.0, 169.1)">F</text><text xml:space="preserve" font-family="Helvetica-Bold,Helvetica" font-weight="bold" font-size="24.0" fill="#FEFFFE" transform="matrix(1.00, 0.00, -0.00, -1.00, 466.6, 169.1)">e</text><text xml:space="preserve" font-family="Helvetica-Bold,Helvetica" font-weight="bold" font-size="24.0" fill="#FEFFFE" transform="matrix(1.00, 0.00, -0.00, -1.00, 480.0, 169.1)">a</text><text xml:space="preserve" font-family="Helvetica-Bold,Helvetica" font-weight="bold" font-size="24.0" fill="#FEFFFE" transform="matrix(1.00, 0.00, -0.00, -1.00, 493.3, 169.1)">t</text><text xml:space="preserve" font-family="Helvetica-Bold,Helvetica" font-weight="bold" font-size="24.0" fill="#FEFFFE" transform="matrix(1.00, 0.00, -0.00, -1.00, 501.3, 169.1)">u</text><text xml:space="preserve" font-family="Helvetica-Bold,Helvetica" font-weight="bold" font-size="24.0" fill="#FEFFFE" transform="matrix(1.00, 0.00, -0.00, -1.00, 516.0, 169.1)">r</text><text xml:space="preserve" font-family="Helvetica-Bold,Helvetica" font-weight="bold" font-size="24.0" fill="#FEFFFE" transform="matrix(1.00, 0.00, -0.00, -1.00, 525.3, 169.1)">e</text><text xml:space="preserve" font-family="Helvetica-Bold,Helvetica" font-weight="bold" font-size="24.0" fill="#FEFFFE" transform="matrix(1.00, 0.00, -0.00, -1.00, 538.7, 169.1)"> </text><text xml:space="preserve" font-family="Helvetica-Bold,Helvetica" font-weight="bold" font-size="24.0" fill="#FEFFFE" transform="matrix(1.00, 0.00, -0.00, -1.00, 545.3, 169.1)">#</text><text xml:space="preserve" font-family="Helvetica-Bold,Helvetica" font-weight="bold" font-size="24.0" fill="#FEFFFE" transform="matrix(1.00, 0.00, -0.00, -1.00, 558.7, 169.1)">1</text></g></g><text xml:space="preserve" font-family="Helvetica-Light,Helvetica" font-size="80.0" fill="#000000" transform="matrix(1.00, 0.00, -0.00, -1.00, 185.2, 668.1)">R</text><text xml:space="preserve" font-family="Helvetica-Light,Helvetica" font-size="80.0" fill="#000000" transform="matrix(1.00, 0.00, -0.00, -1.00, 238.6, 668.1)">a</text><text xml:space="preserve" font-family="Helvetica-Light,Helvetica" font-size="80.0" fill="#000000" transform="matrix(1.00, 0.00, -0.00, -1.00, 283.0, 668.1)">m</text><text xml:space="preserve" font-family="Helvetica-Light,Helvetica" font-size="80.0" fill="#000000" transform="matrix(1.00, 0.00, -0.00, -1.00, 349.7, 668.1)">a</text><text xml:space="preserve" font-family="Helvetica-Light,Helvetica" font-size="80.0" fill="#000000" transform="matrix(1.00, 0.00, -0.00, -1.00, 394.2, 668.1)">s</text><text xml:space="preserve" font-family="Helvetica-Light,Helvetica" font-size="80.0" fill="#000000" transform="matrix(1.00, 0.00, -0.00, -1.00, 434.2, 668.1)"> </text><text xml:space="preserve" font-family="Helvetica-Light,Helvetica" font-size="80.0" fill="#000000" transform="matrix(1.00, 0.00, -0.00, -1.00, 456.4, 668.1)">y</text><text xml:space="preserve" font-family="Helvetica-Light,Helvetica" font-size="80.0" fill="#000000" transform="matrix(1.00, 0.00, -0.00, -1.00, 496.4, 668.1)"> </text><text xml:space="preserve" font-family="Helvetica-Light,Helvetica" font-size="80.0" fill="#000000" transform="matrix(1.00, 0.00, -0.00, -1.00, 518.6, 668.1)">F</text><text xml:space="preserve" font-family="Helvetica-Light,Helvetica" font-size="80.0" fill="#000000" transform="matrix(1.00, 0.00, -0.00, -1.00, 563.1, 668.1)">u</text><text xml:space="preserve" font-family="Helvetica-Light,Helvetica" font-size="80.0" fill="#000000" transform="matrix(1.00, 0.00, -0.00, -1.00, 607.6, 668.1)">s</text><text xml:space="preserve" font-family="Helvetica-Light,Helvetica" font-size="80.0" fill="#000000" transform="matrix(1.00, 0.00, -0.00, -1.00, 647.6, 668.1)">i</text><text xml:space="preserve" font-family="Helvetica-Light,Helvetica" font-size="80.0" fill="#000000" transform="matrix(1.00, 0.00, -0.00, -1.00, 665.4, 668.1)">o</text><text xml:space="preserve" font-family="Helvetica-Light,Helvetica" font-size="80.0" fill="#000000" transform="matrix(1.00, 0.00, -0.00, -1.00, 709.8, 668.1)">n</text><text xml:space="preserve" font-family="Helvetica-Light,Helvetica" font-size="80.0" fill="#000000" transform="matrix(1.00, 0.00, -0.00, -1.00, 754.3, 668.1)">e</text><text xml:space="preserve" font-family="Helvetica-Light,Helvetica" font-size="80.0" fill="#000000" transform="matrix(1.00, 0.00, -0.00, -1.00, 798.8, 668.1)">s</text><path d="M 0.0 85.0 L 0.5 15.0 C 0.5 6.7 6.7 -0.1 15.0 -0.1 L 238.6 -0.1 C 246.9 -0.1 253.5 6.7 253.5 15.0 L 253.5 85.0 C 253.5 93.3 246.9 99.9 238.6 99.9 L 15.0 99.9 C 6.7 99.9 0.0 93.3 0.0 85.0 Z M 0.0 85.0 " fill="none" stroke="#E72736" stroke-width="4.00" transform="matrix(1.00, 0.00, 0.00, -1.00, 377.5, 364.9)"></path></g></svg>