<?xml version="1.0" encoding="UTF-8" standalone="no"?><svg xmlns="http://www.w3.org/2000/svg" xmlns:xlink="http://www.w3.org/1999/xlink" clip-rule="evenodd" stroke-miterlimit="10" viewBox="0 0 256 95"><desc>SVG generated by Keynote</desc><defs></defs><g transform="matrix(1.00, 0.00, -0.00, -1.00, 0.0, 95.0)"><image xlink:href="../../A67FECBC-B0F5-4838-9B48-8163CAB1A7C3/assets/CEDECBE3C29D7C7E939ECDFF3BCAE40D.png" width="250.00" height="92.00" transform="matrix(1.00, 0.00, -0.00, -1.00, 3.8, 93.6)" opacity="0.50"></image><g><clipPath id="clip0x6000012bf800"><path d="M 6.8 19.1 L 7.0 75.8 C 7.0 83.4 12.9 90.0 20.5 90.0 L 235.5 90.0 C 243.1 90.0 249.0 83.4 249.0 75.8 L 249.0 19.1 C 249.0 11.5 243.1 5.0 235.5 5.0 L 20.5 5.0 C 12.9 5.0 6.8 11.5 6.8 19.1 Z M 6.8 19.1 "></path></clipPath><g clip-path="url(#clip0x6000012bf800)"><image xlink:href="../../3BE49F37-14FE-4738-9523-6C66365DB277/assets/57C63BC369DF2E161F93135AB5988468.png" width="600.00" height="600.00" transform="matrix(0.50, 0.00, -0.00, -0.50, 6.8, 90.0)"></image></g></g><g><clipPath id="clip0x6000012bef60"><path d="M 4.8 5.3 L 251.2 5.3 L 251.2 89.6 L 4.8 89.6 Z M 4.8 5.3 "></path></clipPath><g clip-path="url(#clip0x6000012bef60)"><text xml:space="preserve" font-family="Helvetica-Bold,Helvetica" font-weight="bold" font-size="24.0" fill="#FEFFFE" transform="matrix(1.00, 0.00, -0.00, -1.00, 68.0, 38.4)">F</text><text xml:space="preserve" font-family="Helvetica-Bold,Helvetica" font-weight="bold" font-size="24.0" fill="#FEFFFE" transform="matrix(1.00, 0.00, -0.00, -1.00, 82.6, 38.4)">e</text><text xml:space="preserve" font-family="Helvetica-Bold,Helvetica" font-weight="bold" font-size="24.0" fill="#FEFFFE" transform="matrix(1.00, 0.00, -0.00, -1.00, 96.0, 38.4)">a</text><text xml:space="preserve" font-family="Helvetica-Bold,Helvetica" font-weight="bold" font-size="24.0" fill="#FEFFFE" transform="matrix(1.00, 0.00, -0.00, -1.00, 109.3, 38.4)">t</text><text xml:space="preserve" font-family="Helvetica-Bold,Helvetica" font-weight="bold" font-size="24.0" fill="#FEFFFE" transform="matrix(1.00, 0.00, -0.00, -1.00, 117.3, 38.4)">u</text><text xml:space="preserve" font-family="Helvetica-Bold,Helvetica" font-weight="bold" font-size="24.0" fill="#FEFFFE" transform="matrix(1.00, 0.00, -0.00, -1.00, 132.0, 38.4)">r</text><text xml:space="preserve" font-family="Helvetica-Bold,Helvetica" font-weight="bold" font-size="24.0" fill="#FEFFFE" transform="matrix(1.00, 0.00, -0.00, -1.00, 141.3, 38.4)">e</text><text xml:space="preserve" font-family="Helvetica-Bold,Helvetica" font-weight="bold" font-size="24.0" fill="#FEFFFE" transform="matrix(1.00, 0.00, -0.00, -1.00, 154.7, 38.4)"> </text><text xml:space="preserve" font-family="Helvetica-Bold,Helvetica" font-weight="bold" font-size="24.0" fill="#FEFFFE" transform="matrix(1.00, 0.00, -0.00, -1.00, 161.3, 38.4)">#</text><text xml:space="preserve" font-family="Helvetica-Bold,Helvetica" font-weight="bold" font-size="24.0" fill="#FEFFFE" transform="matrix(1.00, 0.00, -0.00, -1.00, 174.7, 38.4)">1</text></g></g></g></svg>