<?xml version="1.0" encoding="UTF-8" standalone="no"?><svg xmlns="http://www.w3.org/2000/svg" xmlns:xlink="http://www.w3.org/1999/xlink" clip-rule="evenodd" stroke-miterlimit="10" viewBox="0 0 252 97"><desc>SVG generated by Keynote</desc><defs></defs><g transform="matrix(1.00, 0.00, -0.00, -1.00, 0.0, 97.0)"><image xlink:href="../../A67FECBC-B0F5-4838-9B48-8163CAB1A7C3/assets/DB21EF4A60227210AB79AD721238675D.png" width="248.00" height="90.00" transform="matrix(1.00, 0.00, -0.00, -1.00, 1.6, 91.8)" opacity="0.50"></image><g><clipPath id="clip0x6000012bf200"><path d="M 4.6 20.2 L 5.0 77.0 C 5.0 84.6 10.7 91.0 18.4 91.0 L 233.3 91.0 C 240.9 91.0 247.0 84.6 247.0 77.0 L 247.0 20.2 C 247.0 12.6 240.9 6.0 233.3 6.0 L 18.4 6.0 C 10.7 6.0 4.6 12.6 4.6 20.2 Z M 4.6 20.2 "></path></clipPath><g clip-path="url(#clip0x6000012bf200)"><image xlink:href="../../3BE49F37-14FE-4738-9523-6C66365DB277/assets/C3C0FC898C94653CAF8AD846D6CCD108.png" width="600.00" height="600.00" transform="matrix(0.50, 0.00, -0.00, -0.50, 4.6, 91.0)"></image></g></g><g><clipPath id="clip0x608000cbe9c0"><path d="M 2.6 6.5 L 249.0 6.5 L 249.0 90.8 L 2.6 90.8 Z M 2.6 6.5 "></path></clipPath><g clip-path="url(#clip0x608000cbe9c0)"><text xml:space="preserve" font-family="Helvetica-Light,Helvetica" font-size="24.0" fill="#FEFFFE" transform="matrix(1.00, 0.00, -0.00, -1.00, 110.5, 39.5)">C</text><text xml:space="preserve" font-family="Helvetica-Light,Helvetica" font-size="24.0" fill="#FEFFFE" transform="matrix(1.00, 0.00, -0.00, -1.00, 127.8, 39.5)">2</text></g></g></g></svg>