<?xml version="1.0" encoding="UTF-8" standalone="no"?><svg xmlns="http://www.w3.org/2000/svg" xmlns:xlink="http://www.w3.org/1999/xlink" clip-rule="evenodd" stroke-miterlimit="10" viewBox="0 0 255 95"><desc>SVG generated by Keynote</desc><defs></defs><g transform="matrix(1.00, 0.00, -0.00, -1.00, 0.0, 95.0)"><image xlink:href="../../A67FECBC-B0F5-4838-9B48-8163CAB1A7C3/assets/A1B38D3986327752010A90F151F722D3.png" width="250.00" height="92.00" transform="matrix(1.00, 0.00, -0.00, -1.00, 3.0, 93.6)" opacity="0.50"></image><g><clipPath id="clip0x608000ea1620"><path d="M 6.0 19.1 L 6.0 75.8 C 6.0 83.4 12.2 90.0 19.8 90.0 L 234.7 90.0 C 242.4 90.0 249.0 83.4 249.0 75.8 L 249.0 19.1 C 249.0 11.5 242.4 5.0 234.7 5.0 L 19.8 5.0 C 12.2 5.0 6.0 11.5 6.0 19.1 Z M 6.0 19.1 "></path></clipPath><g clip-path="url(#clip0x608000ea1620)"><image xlink:href="../../3BE49F37-14FE-4738-9523-6C66365DB277/assets/57C63BC369DF2E161F93135AB5988468.png" width="600.00" height="600.00" transform="matrix(0.50, 0.00, -0.00, -0.50, 6.0, 90.0)"></image></g></g><g><clipPath id="clip0x6000014a45c0"><path d="M 4.0 5.3 L 250.5 5.3 L 250.5 89.6 L 4.0 89.6 Z M 4.0 5.3 "></path></clipPath><g clip-path="url(#clip0x6000014a45c0)"><text xml:space="preserve" font-family="Helvetica-Bold,Helvetica" font-weight="bold" font-size="24.0" fill="#FEFFFE" transform="matrix(1.00, 0.00, -0.00, -1.00, 88.6, 38.4)">M</text><text xml:space="preserve" font-family="Helvetica-Bold,Helvetica" font-weight="bold" font-size="24.0" fill="#FEFFFE" transform="matrix(1.00, 0.00, -0.00, -1.00, 108.6, 38.4)">a</text><text xml:space="preserve" font-family="Helvetica-Bold,Helvetica" font-weight="bold" font-size="24.0" fill="#FEFFFE" transform="matrix(1.00, 0.00, -0.00, -1.00, 121.9, 38.4)">s</text><text xml:space="preserve" font-family="Helvetica-Bold,Helvetica" font-weight="bold" font-size="24.0" fill="#FEFFFE" transform="matrix(1.00, 0.00, -0.00, -1.00, 135.3, 38.4)">t</text><text xml:space="preserve" font-family="Helvetica-Bold,Helvetica" font-weight="bold" font-size="24.0" fill="#FEFFFE" transform="matrix(1.00, 0.00, -0.00, -1.00, 143.3, 38.4)">e</text><text xml:space="preserve" font-family="Helvetica-Bold,Helvetica" font-weight="bold" font-size="24.0" fill="#FEFFFE" transform="matrix(1.00, 0.00, -0.00, -1.00, 156.6, 38.4)">r</text></g></g></g></svg>